<?xml version="1.0" encoding="UTF-8" standalone="no"?>
<svg
   style="isolation:isolate"
   viewBox="66.993 897.484 600 600.00001"
   version="1.1"
   id="svg11"
   sodipodi:docname="design.svg"
   xml:space="preserve"
   inkscape:export-filename="216333102-4d10c195-be66-4fa0-97ca-70a71756b25e.png"
   inkscape:export-xdpi="3733.2917"
   inkscape:export-ydpi="3733.2917"
   inkscape:version="1.2.2 (b0a84865, 2022-12-01)"
   width="600"
   height="600"
   xmlns:inkscape="http://www.inkscape.org/namespaces/inkscape"
   xmlns:sodipodi="http://sodipodi.sourceforge.net/DTD/sodipodi-0.dtd"
   xmlns:xlink="http://www.w3.org/1999/xlink"
   xmlns="http://www.w3.org/2000/svg"
   xmlns:svg="http://www.w3.org/2000/svg">
  <defs
     id="defs15">
    <linearGradient
      
         style="stop-color:#9c1d12;stop-opacity:1;" />
    </linearGradient>
    <linearGradient
       id="ine
       x1="0.045
       y1="0.95468748"
       y2="0.045312501"
       gradientTransform="matrix(32,0,0,32,231.02995,929.98044)"
       gradientUnits="userSpaceOnUse">
      <stop
         offset="0"
         stop-color="#9c1d12"
         id="stop1254"
         style="stop-color:#9c1d12;stop-opacity:1;" />
      <stop
         offset="1"
         stop-color="#9c1d12"
         id="stop1256"
         style="stop-color:#9c1d12;stop-opacity:1;" />
    </linearGradient>
    <linearGradient
       id="linearGradient1228"
       x1="
         offset="100%"
         stop-Use"
       gradientTransform="matrix(26.000477,0,0,25.999345,66.993017,897.4845)"
       x1="0.14773831"
       y1=475,0,0,25.999358,17.984526,891.74869)"
       x1="0.14773831"
       y1="0.85134232"
       x2="0.84543866"
       y2="0.15443686" />
  </defs>
  <sodipodi:namedview
     id="namedview13"
     pagecolor="#ffffff"
     boreckerboard="0"
     inkscape:deskcolor="#d1d1d1"
     showgrid="false"
    1d12;stop-opacity:1;" />
    <stop
       offset="1"
       stop-color="#9c1d12"
       id="stop6"
       style="stop-color:#9c1d12;stop-opacity:1;" />
  </linearGradient>
  <text
     xml:space="preserve"
     transform="translate(66.993,897.484)"
     id="text9003"
     style="white-space:pre;shape-inside:url(#rect9005);display:inline;fill:#9c1d12" />
  <path
     fill="url(#a)"
     d="m 1132,2.12189 c -0.37566,0.3367 -0.55732,0.87879 -0.34675,1.33694 1.42256,2.97602 0.88256,6.52382 -1.45146,8.85602 -2.33502,2.3313 -5.88696,2.8707 -8.86652,1.4488 -0.43892,-0.1965 -0.953965,-0.03 -1.292057,0.3127 l -2.16992,2.1664 c -0.255052,0.2498 -0.3806,0.6023 -0.340069,0.9558 0.04053,0.3545 0.243189,0.6695 0.54767,0.8541 5.112896,3.0945 11.678996,2.3056 15.911086,-1.9116 4.23208,-4.2162 5.03876,-10.77258 1.9554,-15.88728 -0.17696,-0.31104 -0.48935,-0.52234 -0.84425,-0.57171 -0.35489,-0.0504 -0.71276,0.0681 -0.96781,0.31794 z m -18.466546,-2.30559 c -4.252844,4.20042 -5.086212,10.75774 -2.019656,15.88534 0.176955,0.312 0.488355,0.5233 0.843253,0.5727 0.354898,0.05 0.712762,-0.068 0.968803,-0.319 l 2.123456,-2.1091 c 0.384555,-0.3367 0.572152,-0.8847 0.35862,-1.3488 -1.422557,-2.976 -0.883553,-6.52373 1.451458,-8.85593 2.334022,-2.33126 5.886942,-2.87084 8.865522,-1.44997 0.43398,0.19452 0.94211,0.033 1.28119,-0.29971 l 2.18178,-2.1792 c 0.25505,-0.24883 0.3806,-0.60133 0.34007,-0.95581 -0.0415,-0.35349 -0.24319,-0.66847 -0.54767,-0.85411 -5.1218,-3.06786 -11.678011,-2.25523 -15.893289,1.97185 z"
     id="path5412"
     inkscape:export-filename="../../Desktop/path9.png"
     inkscape:export-xdpi="3733.2917"
     inkscape:export-ydpi="3733.2917"
     style="fill:url(#linearGradient5414);stroke-width:0.987988"
     sodipodi:nodetypes="cc" />
  <g
     id="g9521">
    <g
       id="g3226"
       transform="translate(42.333011,90.667253)">
      <path"
       style="fill:#9c1d12;fill-opacity:1;stroke-width:0.83599"
       sodipodi:nodetypes="ccccccccccccccccccccccccccc" />
  </g>
  <path
     fill="url(#a)"
     d="m 113.48507,990.48835 -2.13532,2.12189 c -0.37566,0.3367 -0.55732,0.87879 -0.34675,1.33694 1.42256,2.97602 0.88256,6.52382 -1.45146,8.85602 -2.33502,2.3313 -5.88696,2.8707 -8.86652,1.4488 -0.43892,-0.1965 -0.953965,-0.03 -1.292057,0.3127 l -2.16992,2.1664 c -0.255052,0.2498 -0.3806,0.6023 -0.340069,0.9558 0.04053,0.3545 0.243189,0.6695 0.54767,0.8541 5.112896,3.0945 11.678996,2.3056 15.911086,-1.9116 4.23208,-4.2162 5.03876,-10.77258 1.9554,-15.88728 -0.17696,-0.31104 -0.48935,-0.52234 -0.84425,-0.57171 -0.35489,-0.0504 -0.71276,0.0681 -0.96781,0.31794 z m -18.466546,-2.30559 c -4.252844,4.20042 -5.086212,10.75774 -2.019656,15.88534 0.176955,0.312 0.488355,0.5233 0.843253,0.5727 0.354898,0.05 0.712762,-0.068 0.968803,-0.319 l 2.123456,-2.1091 c 0.384555,-0.3367 0.572152,-0.8847 0.35862,-1.3488 -1.422557,-2.976 -0.883553,-6.52373 1.451458,-8.85593 2.334022,-2.33126 5.886942,-2.87084 8.865522,-1.44997 0.43398,0.19452 0.94211,0.033 1.28119,-0.29971 l 2.18178,-2.1792 c 0.25505,-0.24883 0.3806,-0.60133 0.34007,-0.95581 -0.0415,-0.35349 -0.24319,-0.66847 -0.54767,-0.85411 -5.1218,-3.06786 -11.678011,-2.25523 -15.893289,1.97185 z"
     id="path9523"
     inkscape:export-filename/../Desktop/path9.png"
     inkscape:export-xdpi="2599.3848"
     style="fill:url(#linearGradient5414);stroke-width:0.987988"
     sodipodi:nodetypes="ccccccccccccccccccccccccccc" />
  <g
     id="g9759"
     transform="translate(18.35032,5.5050959)">
    <g
       id="g8359">
      <text
         xml:space="preserve"
         style="font-style:normal;font-variant:normal;font-weight:normal;font-stretch:normal;font-size:21.3333px;font-family:Asap;-inkscape-font-specification:Asap;fill:#9c1d12"
         x="98.192268"
         y="917.46295"
         id="text9011">
        <tspan
           sodipodi:role="line"
           id="tspan9009"
           x="98.192268"
           y="917.46295"
           style="font-style:normal;font-variant:normal;font-weight:600;font-stretch:normal;font-size:21.3333px;font-family:Nunito;-inkscape-font-specification:'Nunito Semi-Bold';fill:#9c1d12">ruwaredesk</tspan>
      </text>
    </g>
    <path
       fill="url(#a)"
       d="m 89.317967,90917"
      
       fill="url(#a)"
       d="m 111.31998,952.54667 -1.8068,1.79545 c -0.31787,0.2849 -0.47158,0.7436 -0.29341,1.13122 1.20371,2.51824 0.74678,5.52022 -1.22816,7.49362 -1.97578,1.97264 -4.98127,2.42905 -7.50244,1.22591 -0.37139,-0.16627 -0.807201,-0.0254 -1.093271,0.26459 l -1.83609,1.8331 c -0.21582,0.21137 -0.32205,0.50964 -0.28775,0.80876 0.0343,0.29996 0.20578,0.5665 0.46341,0.7227 4.326301,2.61842 9.882231,1.95089 13.463231,-1.61751 3.58099,-3.56755 4.26356,-9.11527 1.65457,-13.44309 -0.14974,-0.26324 -0.41407,-0.44203 -0.71437,-0.48375 -0.30029,-0.0423 -0.6031,0.0575 -0.81892,0.269 z m -15.625531,-1.9509 c -3.59857,3.55419 -4.30372,9.10275 -1.70895,13.44149 0.14974,0.264 0.41323,0.44279 0.71352,0.48459 0.3003,0.0423 0.60312,-0.0575 0.81977,-0.26992 l 1.79676,-1.78462 c 0.3254,-0.2849 0.48414,-0.7486 0.30345,-1.1413 -1.2037,-2.51815 -0.74762,-5.52013 1.22816,-7.49353 1.974941,-1.97255 4.981261,-2.42914 7.501591,-1.22684 0.36722,0.16458 0.79717,0.0279 1.08409,-0.25367 l 1.84612,-1.84394 c 0.21581,-0.21052 0.32205,-0.50879 0.28775,-0.80875 -0.0351,-0.29912 -0.20577,-0.56557 -0.46341,-0.7227 -4.33383,-2.59583 -9.881401,-1.90825 -13.448171,1.66853 z"
       id="path9765"
       inkscape:exfill-opacity:1;stroke-width:0.83599"
       sodipodi:nodetypes="ccccccccccccccccccccccccccc" />
  </g>
  <g
     
      
       x="66.992996"
       y="897.48401" />
    <path
       fill="url(#a)"
       d="m 90.88335cccccccccccccccccc" />
  </g>
  <path
     fildth:0.987988"
     sodipodi:nodetypes="ccccccccccccccccccccccccccc" />
  <path23076"
     style="fill:#9c1d12;stroke-width:0.987988"
     sodipodi:nodetypes="ccccccccccccccccccccccccccc" />
  <g

  </g>
</svg>