<?xml version="1.0" standalone="no"?><!DOCTYPE svg PUBLIC "-//W3C//DTD SVG 20010904//EN" "http://www.w3.org/TR/2001/REC-SVG-20010904/DTD/svg10.dtd"><svg xmlns="http://www.w3.org/2000/svg" version="1.0" width="50" height="50" viewBox="0 0 500.000000 500.000000" preserveAspectRatio="xMidYMid meet">
<metadata>
Created by potrace 1.16, written by Peter Selinger 2001-2019
</metadata>
<g transform="translate(0.000000,500.000000) scale(0.100000,-0.100000)" fill="#d30d0d" stroke="none">
<path d="M1620 2505 l0 -785 235 0 235 0 0 194 0 194 388 4 c355 4 393 6 463 25 286 79 420 239 436 518 20 349 -152 557 -511 620 -73 12 -190 15 -667 15 l-579 0 0 -785z m1117 374 c114 -20 165 -75 165 -178 0 -91 -39 -146 -121 -172 -23 -8 -151 -14 -363 -16 l-328 -5 0 191 0 191 292 0 c167 0 318 -5 355 -11z"/>
<path d="M618 2943 l-618 -225 0 -277 0 -276 628 -227 c345 -126 631 -228 635 -228 4 0 7 119 7 264 l0 263 -257 97 c-142 54 -261 101 -265 105 -4 4 111 52 257 106 l265 100 0 263 c0 243 -1 262 -17 261 -10 -1 -296 -102 -635 -226z"/>
<path d="M3730 2908 l0 -263 265 -100 c145 -55 261 -103 257 -106 -4 -4 -117 -48 -252 -99 -135 -51 -251 -95 -257 -97 -20 -8 -19 -536 1 -531 7 2 293 104 634 228 l622 225 0 276 0 276 -624 227 c-343 124 -629 226 -635 226 -8 0 -11 -80 -11 -262z"/>
</g>
</svg>